<?xml version="1.0" encoding="UTF-8" standalone="no"?>
<!DOCTYPE svg PUBLIC "-//W3C//DTD SVG 1.1//EN" "http://www.w3.org/Graphics/SVG/1.1/DTD/svg11.dtd">
<svg xmlns="http://www.w3.org/2000/svg" version="1.1" viewBox="0.00 0.00 150.00 150.00">
<g stroke-width="1.00" fill="none" stroke-linecap="butt">
<path stroke="#7e3016" vector-effect="non-scaling-stroke" d="
  M 95.76 27.15
  Q 87.37 17.70 76.31 5.98
  C 74.07 3.60 71.94 3.10 69.60 5.61
  Q 58.96 17.05 6.29 73.77
  Q 3.55 76.71 5.43 80.29
  A 3.03 2.78 12.7 0 0 5.82 80.85
  Q 12.29 87.88 24.02 100.68
  C 26.52 103.40 24.57 105.75 23.58 108.44
  Q 18.33 122.76 10.15 142.41
  A 1.01 1.01 0.0 0 0 11.71 143.60
  Q 12.16 143.24 12.81 142.56
  Q 30.01 124.27 69.19 81.94
  Q 71.59 79.35 70.65 75.49
  A 0.83 0.76 18.4 0 0 70.46 75.15
  L 39.74 41.71
  A 0.96 0.95 -21.2 0 1 40.45 40.11
  Q 84.32 40.17 91.41 40.07
  C 97.37 39.99 96.58 33.27 96.24 28.30
  A 1.90 1.89 -67.8 0 0 95.76 27.15"
/>
<path stroke="#7e3016" vector-effect="non-scaling-stroke" d="
  M 134.42 11.76
  Q 133.65 11.97 133.07 12.59
  Q 125.65 20.33 78.80 70.80
  C 76.17 73.64 73.00 76.84 75.87 80.91
  Q 77.87 83.75 81.43 87.41
  Q 83.64 89.67 105.82 114.34
  A 0.92 0.91 57.9 0 1 105.49 115.79
  Q 104.86 116.06 104.24 115.83
  Q 77.02 105.87 74.75 104.97
  A 2.05 2.03 52.2 0 0 73.76 104.84
  Q 71.30 105.12 70.73 105.72
  Q 52.48 125.23 34.66 144.24
  A 1.60 1.60 0.0 0 0 36.06 146.91
  Q 57.50 143.69 83.61 139.66
  Q 85.50 139.37 86.76 138.01
  Q 111.88 110.67 137.86 82.87
  Q 142.64 77.76 138.01 72.76
  Q 129.04 63.09 123.30 57.20
  Q 122.99 56.88 121.17 54.48
  A 3.38 3.38 0.0 0 1 120.72 51.21
  L 135.63 13.10
  A 1.01 1.01 0.0 0 0 134.42 11.76"
/>
</g>
<path fill="#000000" d="
  M 150.00 0.00
  L 150.00 150.00
  L 0.00 150.00
  L 0.00 0.00
  L 150.00 0.00
  Z
  M 95.76 27.15
  Q 87.37 17.70 76.31 5.98
  C 74.07 3.60 71.94 3.10 69.60 5.61
  Q 58.96 17.05 6.29 73.77
  Q 3.55 76.71 5.43 80.29
  A 3.03 2.78 12.7 0 0 5.82 80.85
  Q 12.29 87.88 24.02 100.68
  C 26.52 103.40 24.57 105.75 23.58 108.44
  Q 18.33 122.76 10.15 142.41
  A 1.01 1.01 0.0 0 0 11.71 143.60
  Q 12.16 143.24 12.81 142.56
  Q 30.01 124.27 69.19 81.94
  Q 71.59 79.35 70.65 75.49
  A 0.83 0.76 18.4 0 0 70.46 75.15
  L 39.74 41.71
  A 0.96 0.95 -21.2 0 1 40.45 40.11
  Q 84.32 40.17 91.41 40.07
  C 97.37 39.99 96.58 33.27 96.24 28.30
  A 1.90 1.89 -67.8 0 0 95.76 27.15
  Z
  M 134.42 11.76
  Q 133.65 11.97 133.07 12.59
  Q 125.65 20.33 78.80 70.80
  C 76.17 73.64 73.00 76.84 75.87 80.91
  Q 77.87 83.75 81.43 87.41
  Q 83.64 89.67 105.82 114.34
  A 0.92 0.91 57.9 0 1 105.49 115.79
  Q 104.86 116.06 104.24 115.83
  Q 77.02 105.87 74.75 104.97
  A 2.05 2.03 52.2 0 0 73.76 104.84
  Q 71.30 105.12 70.73 105.72
  Q 52.48 125.23 34.66 144.24
  A 1.60 1.60 0.0 0 0 36.06 146.91
  Q 57.50 143.69 83.61 139.66
  Q 85.50 139.37 86.76 138.01
  Q 111.88 110.67 137.86 82.87
  Q 142.64 77.76 138.01 72.76
  Q 129.04 63.09 123.30 57.20
  Q 122.99 56.88 121.17 54.48
  A 3.38 3.38 0.0 0 1 120.72 51.21
  L 135.63 13.10
  A 1.01 1.01 0.0 0 0 134.42 11.76
  Z"
/>
<path fill="#fb5f2c" d="
  M 96.24 28.30
  C 96.58 33.27 97.37 39.99 91.41 40.07
  Q 84.32 40.17 40.45 40.11
  A 0.96 0.95 -21.2 0 0 39.74 41.71
  L 70.46 75.15
  A 0.83 0.76 18.4 0 1 70.65 75.49
  Q 71.59 79.35 69.19 81.94
  Q 30.01 124.27 12.81 142.56
  Q 12.16 143.24 11.71 143.60
  A 1.01 1.01 0.0 0 1 10.15 142.41
  Q 18.33 122.76 23.58 108.44
  C 24.57 105.75 26.52 103.40 24.02 100.68
  Q 12.29 87.88 5.82 80.85
  A 3.03 2.78 12.7 0 1 5.43 80.29
  Q 3.55 76.71 6.29 73.77
  Q 58.96 17.05 69.60 5.61
  C 71.94 3.10 74.07 3.60 76.31 5.98
  Q 87.37 17.70 95.76 27.15
  A 1.90 1.89 -67.8 0 1 96.24 28.30
  Z"
/>
<path fill="#fb5f2c" d="
  M 134.42 11.76
  A 1.01 1.01 0.0 0 1 135.63 13.10
  L 120.72 51.21
  A 3.38 3.38 0.0 0 0 121.17 54.48
  Q 122.99 56.88 123.30 57.20
  Q 129.04 63.09 138.01 72.76
  Q 142.64 77.76 137.86 82.87
  Q 111.88 110.67 86.76 138.01
  Q 85.50 139.37 83.61 139.66
  Q 57.50 143.69 36.06 146.91
  A 1.60 1.60 0.0 0 1 34.66 144.24
  Q 52.48 125.23 70.73 105.72
  Q 71.30 105.12 73.76 104.84
  A 2.05 2.03 52.2 0 1 74.75 104.97
  Q 77.02 105.87 104.24 115.83
  Q 104.86 116.06 105.49 115.79
  A 0.92 0.91 57.9 0 0 105.82 114.34
  Q 83.64 89.67 81.43 87.41
  Q 77.87 83.75 75.87 80.91
  C 73.00 76.84 76.17 73.64 78.80 70.80
  Q 125.65 20.33 133.07 12.59
  Q 133.65 11.97 134.42 11.76
  Z"
/>
</svg>
