<?xml version="1.0" encoding="UTF-8" standalone="no"?>
<!DOCTYPE svg PUBLIC "-//W3C//DTD SVG 1.1//EN" "http://www.w3.org/Graphics/SVG/1.1/DTD/svg11.dtd">
<svg xmlns="http://www.w3.org/2000/svg" version="1.1" viewBox="0.00 0.00 220.00 205.00">
<path fill="#fb5f2c" d="
  M 56.80 55.10
  Q 56.76 55.26 56.84 55.54
  A 0.64 0.61 -77.6 0 0 56.95 55.72
  Q 81.01 79.84 101.13 100.13
  C 106.33 105.36 103.77 109.91 98.95 114.70
  Q 90.93 122.67 21.63 192.13
  Q 17.98 195.79 16.59 196.57
  Q 16.03 196.88 15.55 196.80
  A 1.09 1.05 -73.3 0 1 14.77 195.30
  Q 25.16 171.83 36.65 143.38
  Q 37.94 140.21 35.71 137.98
  Q 23.40 125.67 9.08 111.07
  C 5.23 107.14 6.90 103.06 10.23 99.73
  Q 61.65 48.28 99.40 10.28
  C 104.04 5.61 107.18 3.35 112.27 8.45
  Q 124.30 20.50 138.42 34.84
  Q 140.25 36.70 140.86 38.00
  A 2.36 2.35 -58.4 0 1 141.09 38.97
  Q 141.34 47.64 140.99 49.44
  C 140.06 54.32 136.40 54.78 131.42 54.80
  Q 108.95 54.86 57.20 54.79
  A 0.41 0.41 0.0 0 0 56.80 55.10
  Z"
/>
<path fill="#fb5f2c" d="
  M 156.07 157.67
  Q 155.76 156.92 154.45 155.55
  Q 131.59 131.73 114.27 114.18
  Q 110.26 110.12 109.59 107.73
  Q 108.49 103.84 111.94 100.39
  Q 177.41 34.68 195.80 16.55
  Q 196.73 15.64 197.38 15.76
  A 1.88 1.85 -73.4 0 1 198.75 18.33
  Q 180.82 60.81 177.28 69.54
  Q 175.95 72.81 178.56 75.47
  Q 190.47 87.61 202.55 99.47
  C 207.95 104.77 206.82 108.53 201.95 113.45
  Q 174.17 141.51 126.66 188.91
  Q 124.85 190.72 120.73 191.25
  Q 98.65 194.12 57.49 200.23
  Q 54.73 200.64 52.01 200.60
  A 1.68 1.66 0.7 0 1 50.35 198.92
  Q 50.37 197.71 51.29 196.78
  Q 76.49 171.45 103.34 144.85
  Q 106.01 142.20 110.13 143.64
  Q 133.63 151.89 155.01 158.82
  A 0.86 0.86 0.0 0 0 156.07 157.67
  Z"
/>
</svg>
