<?xml version="1.0" encoding="UTF-8" standalone="no"?>
<!DOCTYPE svg PUBLIC "-//W3C//DTD SVG 1.1//EN" "http://www.w3.org/Graphics/SVG/1.1/DTD/svg11.dtd">
<svg xmlns="http://www.w3.org/2000/svg" version="1.1" viewBox="0.00 0.00 1118.00 223.00">
<path fill="#fb5f2c" d="
  M 34.28 197.69
  A 0.88 0.84 65.6 0 1 32.96 197.16
  Q 32.82 196.60 33.06 196.05
  Q 47.83 162.03 53.66 147.44
  Q 54.59 145.14 54.72 144.51
  A 4.16 4.15 28.2 0 0 53.57 140.71
  Q 41.38 128.80 26.99 114.06
  C 23.47 110.46 25.59 106.43 28.49 103.53
  Q 39.88 92.12 118.30 14.06
  Q 120.95 11.43 124.00 12.21
  Q 125.79 12.66 129.49 16.33
  Q 141.96 28.71 154.18 41.14
  Q 155.42 42.39 155.96 43.38
  A 2.07 2.05 29.5 0 1 156.22 44.30
  C 156.51 51.11 157.59 59.85 150.00 59.88
  Q 116.44 60.00 74.45 59.91
  A 0.32 0.31 80.9 0 0 74.15 60.33
  Q 74.38 60.98 74.70 61.29
  Q 113.92 100.39 117.67 104.31
  C 121.79 108.61 120.13 113.25 116.27 117.02
  Q 92.16 140.62 40.92 191.92
  Q 37.47 195.39 34.28 197.69
  Z"
/>
<path fill="#fb5f2c" d="
  M 171.37 160.14
  Q 171.12 159.72 170.59 159.16
  Q 158.96 146.84 132.95 120.30
  Q 128.92 116.19 128.88 116.16
  C 124.53 112.26 124.01 107.92 128.34 103.59
  Q 152.06 79.86 208.09 24.34
  Q 209.34 23.09 210.52 22.31
  A 1.38 1.37 -31.9 0 1 212.46 22.75
  Q 212.87 23.43 212.48 24.48
  Q 210.95 28.70 205.37 41.63
  Q 195.69 64.05 191.45 74.71
  Q 190.35 77.49 192.70 79.82
  Q 213.11 100.03 217.54 104.60
  C 221.70 108.90 219.61 113.03 215.93 116.68
  Q 196.23 136.19 172.29 160.25
  A 0.59 0.59 0.0 0 1 171.37 160.14
  Z"
/>
<path fill="#fd5810" d="
  M 614.47 106.54
  Q 614.85 106.56 615.05 106.33
  Q 636.33 82.00 641.04 76.78
  Q 642.36 75.30 643.82 74.78
  A 2.19 2.10 -54.3 0 1 644.58 74.64
  Q 656.55 74.56 667.17 74.62
  Q 668.88 74.63 670.30 75.87
  A 1.39 1.38 -48.0 0 1 670.40 77.86
  L 638.92 111.81
  A 1.29 1.29 0.0 0 0 638.82 113.45
  L 671.85 158.72
  A 2.11 2.11 0.0 0 1 671.41 161.65
  Q 670.51 162.33 668.69 162.36
  Q 663.42 162.46 646.82 162.25
  C 644.45 162.21 643.80 161.35 642.61 159.65
  Q 634.00 147.28 622.56 131.30
  A 1.13 1.12 -41.3 0 0 620.82 131.19
  L 615.30 137.15
  A 3.97 3.97 0.0 0 0 614.24 139.80
  Q 614.19 142.72 614.22 158.43
  Q 614.23 162.16 610.77 162.21
  Q 600.15 162.37 592.05 162.20
  Q 589.46 162.15 589.48 159.50
  Q 589.65 137.74 589.38 113.68
  Q 589.29 105.23 589.40 99.84
  Q 589.63 88.31 589.48 85.98
  C 588.89 76.82 589.68 68.45 589.32 58.00
  C 589.14 52.89 589.52 48.92 589.56 43.02
  C 589.57 40.60 591.84 40.82 593.94 40.81
  Q 608.84 40.76 611.32 40.88
  Q 614.12 41.02 614.12 43.89
  Q 614.22 79.51 614.11 106.17
  A 0.37 0.37 0.0 0 0 614.47 106.54
  Z"
/>
<path fill="#fd5810" d="
  M 330.78 58.53
  A 0.89 0.88 -51.6 0 1 330.90 59.61
  Q 324.65 69.81 320.60 75.04
  C 317.98 78.43 316.49 77.40 313.46 75.01
  Q 302.96 66.69 288.75 66.52
  C 282.62 66.44 276.14 68.16 274.17 74.47
  C 272.54 79.72 276.26 84.69 280.93 86.61
  Q 287.90 89.47 297.51 92.05
  Q 303.31 93.61 311.91 97.35
  C 323.20 102.25 331.73 109.32 334.21 121.35
  Q 336.14 130.68 333.20 140.01
  Q 327.57 157.86 307.15 162.71
  Q 290.03 166.78 271.79 162.00
  C 262.91 159.68 255.73 155.61 248.66 150.62
  Q 246.55 149.12 245.64 147.73
  A 2.59 2.58 -44.9 0 1 245.65 144.89
  Q 251.03 136.71 257.45 128.23
  Q 258.95 126.25 260.75 128.01
  Q 265.80 132.98 273.82 137.17
  Q 283.72 142.34 295.29 141.03
  Q 300.55 140.43 303.70 138.07
  C 310.70 132.82 308.67 122.42 300.73 119.27
  C 291.51 115.60 280.60 113.19 273.51 110.74
  C 267.02 108.49 259.84 104.72 255.41 99.29
  Q 247.41 89.50 248.02 76.75
  Q 248.94 57.29 264.71 48.73
  Q 276.61 42.27 291.74 43.01
  Q 309.89 43.90 325.10 53.91
  Q 328.28 56.00 330.78 58.53
  Z"
/>
<path fill="#000000" d="
  M 781.56 111.80
  C 785.96 108.87 789.96 105.36 796.26 104.90
  Q 804.35 104.31 808.81 105.22
  C 819.47 107.40 828.02 117.61 829.78 128.27
  Q 830.29 131.40 830.06 137.09
  Q 829.86 142.05 828.30 145.63
  Q 823.78 156.03 815.25 160.45
  C 797.76 169.51 776.28 162.17 770.56 142.77
  Q 769.47 139.06 769.55 129.13
  Q 769.74 107.93 769.72 101.07
  C 769.70 91.23 771.24 83.35 777.56 76.64
  C 790.51 62.89 815.42 63.94 826.06 80.16
  C 827.69 82.65 829.59 87.55 827.10 90.03
  Q 824.21 92.91 820.79 91.52
  A 1.62 1.62 0.0 0 1 820.01 90.86
  Q 818.86 88.93 817.44 86.73
  Q 811.08 76.87 798.77 77.76
  Q 784.87 78.76 781.43 90.72
  Q 780.62 93.54 780.69 100.83
  Q 780.73 105.49 780.16 110.95
  A 0.91 0.90 76.1 0 0 781.56 111.80
  Z
  M 811.6729 117.9591
  A 20.01 19.69 -54.7 0 0 784.0403 122.9120
  A 20.01 19.69 -54.7 0 0 788.5471 150.6209
  A 20.01 19.69 -54.7 0 0 816.1797 145.6680
  A 20.01 19.69 -54.7 0 0 811.6729 117.9591
  Z"
/>
<path fill="#000000" d="
  M 900.0264 136.5173
  A 27.61 27.61 0.0 0 1 872.4646 164.1754
  L 867.3046 164.1844
  A 27.61 27.61 0.0 0 1 839.6465 136.6227
  L 839.5736 94.8827
  A 27.61 27.61 0.0 0 1 867.1354 67.2246
  L 872.2954 67.2156
  A 27.61 27.61 0.0 0 1 899.9535 94.7773
  L 900.0264 136.5173
  Z
  M 889.5604 94.7331
  A 16.78 16.78 0.0 0 0 872.8685 77.8654
  L 867.1685 77.8356
  A 16.78 16.78 0.0 0 0 850.3009 94.5275
  L 850.0796 136.7869
  A 16.78 16.78 0.0 0 0 866.7715 153.6546
  L 872.4715 153.6844
  A 16.78 16.78 0.0 0 0 889.3391 136.9925
  L 889.5604 94.7331
  Z"
/>
<path fill="#000000" d="
  M 742.67 79.10
  A 0.47 0.47 0.0 0 0 742.25 78.40
  Q 731.05 78.79 705.48 78.67
  Q 702.51 78.66 701.15 76.24
  Q 699.79 73.83 701.00 71.16
  Q 702.23 68.45 705.97 68.45
  Q 744.39 68.43 753.23 68.36
  C 755.46 68.34 756.87 68.82 757.91 70.80
  Q 759.87 74.51 756.63 78.35
  Q 745.11 91.99 733.69 105.78
  A 0.74 0.74 0.0 0 0 734.15 106.98
  C 739.36 107.76 745.80 109.99 749.84 113.26
  Q 759.36 120.95 760.33 132.22
  C 761.60 146.92 752.15 159.17 738.07 163.08
  Q 725.91 166.46 714.14 161.58
  Q 702.29 156.66 698.49 144.51
  Q 697.01 139.75 700.34 136.82
  C 704.24 133.38 708.59 137.24 709.38 141.31
  Q 710.78 148.48 717.39 151.65
  C 728.18 156.82 743.37 153.84 748.23 141.95
  Q 750.25 137.03 749.72 133.00
  C 748.63 124.55 743.49 119.92 735.34 117.33
  A 0.82 0.75 -33.4 0 0 735.09 117.29
  L 720.31 117.10
  A 2.61 2.60 -14.6 0 1 718.09 115.80
  L 716.44 112.93
  A 1.10 1.09 44.0 0 1 716.42 111.86
  Q 717.91 109.04 718.42 108.43
  Q 731.68 92.84 741.07 81.33
  Q 742.18 79.96 742.67 79.10
  Z"
/>
<path fill="#fd5810" d="
  M 367.17 153.72
  A 0.30 0.30 0.0 0 0 366.67 153.93
  Q 366.57 174.66 366.63 189.85
  C 366.64 192.09 365.03 192.97 362.90 192.99
  Q 354.75 193.09 346.50 193.05
  Q 344.26 193.04 343.22 192.74
  A 2.03 2.02 7.7 0 1 341.73 190.79
  L 341.73 76.33
  A 1.74 1.74 0.0 0 1 343.45 74.59
  Q 357.14 74.38 364.23 74.50
  C 367.51 74.56 366.97 80.72 366.38 82.82
  A 0.45 0.45 0.0 0 0 367.13 83.27
  L 371.31 79.20
  A 1.73 1.38 -25.8 0 1 371.50 79.05
  Q 383.40 71.32 396.53 72.92
  C 425.76 76.46 438.68 105.02 432.04 131.62
  C 427.09 151.45 410.69 166.54 389.46 164.08
  Q 376.56 162.59 367.17 153.72
  Z
  M 388.2617 94.8062
  A 23.60 21.60 -87.3 0 0 365.5740 117.3625
  A 23.60 21.60 -87.3 0 0 386.0383 141.9538
  A 23.60 21.60 -87.3 0 0 408.7260 119.3975
  A 23.60 21.60 -87.3 0 0 388.2617 94.8062
  Z"
/>
<path fill="#fd5810" d="
  M 494.01 153.16
  A 0.57 0.57 0.0 0 0 493.02 152.70
  Q 484.52 162.13 471.78 163.58
  Q 465.44 164.30 461.99 164.12
  C 446.00 163.31 436.85 152.40 436.38 136.83
  C 435.98 123.50 442.77 115.24 454.65 110.61
  Q 457.80 109.39 461.77 108.82
  Q 472.49 107.30 488.29 108.79
  Q 491.25 109.07 493.00 108.88
  A 0.85 0.84 -85.5 0 0 493.73 108.25
  C 495.58 101.01 490.04 95.46 483.07 94.69
  C 472.23 93.50 462.98 96.39 452.69 99.93
  C 450.12 100.81 448.96 99.10 448.20 96.71
  Q 447.16 93.47 443.58 82.25
  A 1.77 1.77 0.0 0 1 444.56 80.09
  C 451.95 76.85 460.03 74.87 468.41 73.58
  C 487.27 70.67 512.42 75.23 517.83 97.52
  Q 518.65 100.91 518.52 117.54
  Q 518.42 131.50 518.52 160.00
  A 1.81 1.81 0.0 0 1 517.61 161.57
  Q 516.57 162.17 514.75 162.26
  Q 510.75 162.47 498.49 162.36
  Q 496.56 162.35 494.97 161.50
  A 1.08 1.07 7.7 0 1 494.43 160.80
  Q 493.47 156.75 494.01 153.16
  Z
  M 494.08 124.09
  A 0.72 0.72 0.0 0 0 493.39 123.57
  Q 479.86 123.65 471.78 124.06
  Q 467.83 124.26 463.45 127.84
  C 461.07 129.78 460.89 132.48 460.78 135.28
  Q 460.60 140.31 464.96 142.60
  Q 469.07 144.76 472.07 144.84
  C 482.05 145.11 492.16 138.66 494.14 128.48
  Q 494.63 125.98 494.08 124.09
  Z"
/>
<path fill="#fd5810" d="
  M 552.48 88.99
  A 0.44 0.44 0.0 0 0 553.29 89.20
  Q 555.15 86.09 555.93 84.59
  C 560.29 76.21 569.83 74.38 578.12 73.35
  Q 581.47 72.93 581.47 76.74
  Q 581.43 91.51 581.31 96.00
  Q 581.22 99.11 578.26 99.26
  C 569.96 99.68 560.66 103.00 556.69 110.61
  Q 552.53 118.57 552.46 128.75
  Q 552.31 151.18 552.39 159.79
  Q 552.40 160.23 552.30 160.54
  A 2.24 2.22 -82.4 0 1 550.17 162.18
  L 529.95 162.32
  A 2.36 2.36 0.0 0 1 527.57 159.96
  L 527.57 75.51
  A 0.91 0.91 0.0 0 1 528.48 74.60
  L 549.90 74.60
  A 1.86 1.85 56.5 0 1 550.63 74.75
  Q 552.82 75.70 552.65 78.61
  Q 552.29 84.91 552.48 88.99
  Z"
/>
<ellipse fill="#000000" cx="0.00" cy="0.00" transform="translate(937.24,114.95) rotate(-3.1)" rx="3.67" ry="3.44"/>
<path fill="#000000" d="
  M 982.11 144.85
  A 14.71 14.71 0.0 0 1 967.40 159.56
  L 964.62 159.56
  A 14.71 14.71 0.0 0 1 949.91 144.85
  L 949.91 139.21
  A 14.71 14.71 0.0 0 1 964.62 124.50
  L 967.40 124.50
  A 14.71 14.71 0.0 0 1 982.11 139.21
  L 982.11 144.85
  Z
  M 975.97 138.32
  A 9.18 9.18 0.0 0 0 966.79 129.14
  L 965.29 129.14
  A 9.18 9.18 0.0 0 0 956.11 138.32
  L 956.11 145.76
  A 9.18 9.18 0.0 0 0 965.29 154.94
  L 966.79 154.94
  A 9.18 9.18 0.0 0 0 975.97 145.76
  L 975.97 138.32
  Z"
/>
<rect fill="#000000" x="934.26" y="124.67" width="5.92" height="34.54" rx="0.66"/>
<path fill="#fb5f2c" d="
  M 170.83 160.82
  A 0.34 0.34 0.0 0 1 171.00 161.39
  Q 157.91 174.31 143.60 188.60
  C 141.54 190.65 140.19 191.52 137.34 192.01
  Q 134.02 192.57 127.40 193.45
  Q 121.24 194.27 74.69 200.89
  Q 71.97 201.28 69.46 201.34
  A 1.77 1.68 -4.0 0 1 67.67 199.86
  Q 67.53 198.72 68.49 197.74
  Q 76.41 189.64 119.21 147.45
  Q 121.99 144.71 125.41 145.91
  Q 129.42 147.31 162.55 158.51
  Q 166.76 159.93 170.83 160.82
  Z"
/>
<circle fill="#000000" cx="918.62" cy="155.14" r="4.47"/>
</svg>
