<?xml version="1.0" encoding="UTF-8" standalone="no"?>
<!DOCTYPE svg PUBLIC "-//W3C//DTD SVG 1.1//EN" "http://www.w3.org/Graphics/SVG/1.1/DTD/svg11.dtd">
<svg xmlns="http://www.w3.org/2000/svg" version="1.1" viewBox="0.00 0.00 161.00 150.00">
<path fill="#ffffff" d="
  M 41.82 40.66
  L 74.56 73.93
  A 3.89 3.74 11.0 0 1 75.27 74.94
  Q 77.20 78.94 74.19 81.96
  Q 23.05 133.37 13.90 142.40
  Q 13.36 142.93 12.07 143.75
  A 0.76 0.75 -4.6 0 1 10.97 142.82
  L 26.94 104.81
  A 3.35 3.34 -56.5 0 0 26.20 101.14
  Q 17.83 92.97 6.56 80.99
  Q 3.52 77.76 6.74 73.97
  Q 9.56 70.65 14.99 65.24
  Q 38.88 41.46 73.12 7.12
  C 75.37 4.87 78.31 2.57 81.19 5.35
  Q 93.36 17.04 102.85 27.24
  A 1.41 1.38 23.0 0 1 103.22 28.13
  Q 103.47 34.79 103.19 35.95
  Q 102.18 40.07 97.50 40.09
  Q 71.10 40.16 42.05 40.12
  A 0.32 0.32 0.0 0 0 41.82 40.66
  Z"
/>
<path fill="#ffffff" d="
  M 144.46 11.79
  A 0.94 0.94 0.0 0 1 145.60 13.05
  Q 136.29 35.00 129.88 50.62
  Q 128.78 53.28 130.53 55.02
  Q 144.16 68.59 148.72 73.36
  Q 152.87 77.70 148.57 82.07
  Q 121.86 109.19 94.28 136.53
  Q 91.33 139.46 89.07 139.78
  Q 46.40 145.82 42.74 146.36
  Q 40.37 146.71 37.94 146.73
  A 1.07 1.07 0.0 0 1 36.87 145.54
  Q 36.95 144.77 37.60 144.10
  Q 49.99 131.36 75.47 106.22
  Q 77.57 104.15 80.44 105.13
  Q 99.96 111.79 111.82 115.69
  Q 112.79 116.01 113.56 116.11
  A 0.57 0.57 0.0 0 0 114.04 115.15
  Q 113.83 114.94 111.72 112.60
  Q 104.94 105.11 83.28 83.21
  C 82.39 82.31 81.04 80.51 80.58 79.66
  A 2.42 2.42 0.0 0 1 80.28 78.76
  Q 79.83 75.48 81.90 73.40
  Q 108.91 46.32 139.64 15.64
  C 141.04 14.24 142.66 12.34 144.46 11.79
  Z"
/>
</svg>
